<?xml version="1.0" encoding="UTF-8"?><svg id="a" xmlns="http://www.w3.org/2000/svg" viewBox="0 0 652.8 420.4"><defs><style>.b{fill:#8fbcbb;}</style></defs><path class="b" d="M135.76,70c-4.2,1.9-8.8,9.1-11.3,17.7-1.8,5.8-3.7,17-5.5,32.1l-.6,4.8h-31.7l-.7-5c-1.5-11-7.9-17.9-15.3-16.5-5.2,1-11.4,7.7-14.3,15.4l-2.2,6.1H28.36c-22.1,0-26,.2-27.3,1.6-2,2-2,3.8,.1,5.5,1.2,1.1,7.2,1.5,26.2,1.7l24.7,.3-1.3,8.2c-2,13-2.8,48.5-1.3,61.8,3.1,28.7,13.1,50,26.5,56.4,6.2,2.9,14.1,3.2,19.7,.5,4.3-2,13.5-10.7,18.5-17.5l2.2-3v7.8c.1,9,1.8,13.3,5.8,14.3,6.2,1.6,8.9-1.3,19.3-20.8,10.9-20.4,19.7-31.8,24.5-31.8,1.2,0,2.3,.4,3.2,1.2,.4,.7,.8,9.6,.8,19.8,0,17.9,.1,18.7,2.5,23,3.5,6.2,8,9,14.5,9,9.2,0,17.2-4.8,25.7-15.6l5.2-6.6,1.6,6.1c3.3,12,10.1,18.3,20.6,18.9,8.2,.5,13.6-2,21.9-10.3,7.8-7.8,15-18.8,22.6-34.5,5.7-11.6,9.1-17,11-17s1.9,10.2,.1,29.9c-2.1,22.4-1.9,26.1,1.8,28.1,3.4,1.8,7.6,1.1,10.3-1.6,1.4-1.4,5-7.2,7.8-12.7,14.1-27.5,26.7-42.5,30.6-36.5,.4,.7,.8,9.6,.8,19.8,0,17.9,.1,18.7,2.5,23,3.6,6.4,8,9,15,9,7.9,0,14.5-3.5,22-11.7,3.3-3.7,6.2-6.4,6.3-6.2,.1,.2,1.6,3,3.1,6.2,3.6,7.4,8.9,10.8,16.9,10.8,6.1,0,13.1-2.8,16.7-6.7,1.3-1.3,2.7-2.4,3.2-2.4s.8,7.6,.8,16.8v16.9l-4.6,5.9c-7.2,9.2-11.2,15.9-17.5,28.9-10.3,21.4-15,39-15.2,56.6-.1,10,0,11,2.8,16.4,3.6,7,7.6,9.5,15.3,9.5,10.4,0,17-6.5,22.3-21.9,4.1-11.9,5.1-22.1,5.6-57.5l.5-33.9,9.6-12.6c14.1-18.5,24.4-34.6,32.3-50.5,3.9-7.7,7.2-14.3,7.5-14.5,.7-.8,10.2,20,10.9,23.8,.5,2.9,.1,5.2-1.3,8.5-3.4,7.6-10.3,9.5-17.2,4.6-3.4-2.4-7.3-2.6-9.1-.4s1.1,7.4,5.8,11c6.1,4.7,13.7,6.6,24.4,6.2,8.8-.3,10.3-.7,17.4-4.2,8.6-4.2,16.8-11.8,23-21.2l3.8-5.6,3.4,6.5c7,13.2,14.7,19.5,25.3,20.4,7.9,.8,14.8-2.5,22.2-10.6,5.5-6,13.4-18.4,16.3-25.9,1.7-4.1,1.7-4.4,0-6.2-.9-1.1-2.1-1.8-3.5-2-1.8,0-5,3-5,4.7,0,2.3-10.5,18.2-15.3,23.1-8.8,9-13.2,10.2-20.8,5.3-5.2-3.3-10.2-10.5-13.5-19.6l-2.3-6.4,3.9-7.4c8.7-16,18.4-52.1,19.8-73.2l.7-10,34.5-.5c19-.3,35.1-.9,35.8-1.3,1.5-1,1.6-4.9,0-6.5-.9-.9-10.2-1.2-35.9-1.2h-34.7l-.6-2.3c-.3-1.4-.5-2.8-.6-4.2,0-1.1-1.1-4.4-2.5-7.3-1.9-4.1-3.2-5.6-6.1-6.8-4.9-2.1-9.3-1.1-13.4,2.9-3.1,3-9,13.8-9,16.4,0,1-5.9,1.3-26.3,1.3-27.1,0-28.7,.2-28.7,4.1s2.3,4.4,27.8,4.7l24.4,.3-.7,4.5c-3.7,25-3.2,70.2,1,83.4,.8,2.6-8.7,18-15.1,24.5-6.9,7-14.6,11.3-22.2,12.2-5.5,.6-7-.7-3.1-2.7,3-1.7,6.9-10.7,6.9-16.1,0-5.9-1.5-10-9.6-26.7-5.6-11.2-6.7-14.2-6.4-17.6,.9-11.5-.7-15.6-6.1-15.6-4.8,0-6.3,3.6-5.5,13,.8,10-1.4,17.3-10.4,34-8.7,16.2-27.5,44.4-31.1,46.6-.8,.5-.9-5.9-.4-23.8,.7-22.2,.6-24.6-.9-26.1-3.8-3.8-6.3-1.7-8.8,7.4-3.5,13.1-9.9,20.7-18.4,21.7-8.8,1-12.9-4.7-12.2-16.8,.5-9,3.3-15.5,8.9-21.1,5.3-5.3,9.4-7.1,16.9-7.7,5.8-.3,6.9-.1,10.3,2.2,4.1,2.8,7.6,3.3,9.5,1.4,2.1-2.1,1.3-4.6-2.4-7.6-9.4-7.8-26.1-6.8-37.6,2.3-5,4-11.4,12.4-15.9,21-12.5,23.7-28.5,34.4-34.6,23.2-1.6-2.8-1.8-5.5-1.5-20.4,.3-18.5-.3-21.9-4.9-26.2-1.7-1.6-3.5-2.1-7.4-2.1-5.4,0-10.1,2.5-15.2,8.1-3.7,4.1-14.6,21.2-19.3,30.2s-6.6,10.9-5.7,5.4c.3-1.7,1.1-10.9,1.8-20.2,.9-13.3,.9-18,0-21.4-3-10.8-11.7-12.2-19.8-3.1-1.3,1.4-5.4,8.8-9.3,16.6s-8.8,16.8-10.9,20.1c-13.5,21-27.7,26.2-35.1,13-3-5.3-3.6-16.5-2-37.3,1.3-17.3,1-19.4-2.9-19.4-4.2,0-5.1,2.1-6.3,14.5-1,11.3-1.3,12.5-5.7,21-5.8,11.4-17.5,23.9-23.3,25-5,.9-7.5-.1-9.6-3.8-1.4-2.7-1.7-6-1.7-21.2s-.3-18.5-1.7-21.2c-2.5-4.5-5.6-6.3-10.8-6.3-6.7,0-12.3,4-19.1,13.6-5.3,7.4-16.3,25.7-19,31.7-.6,1.4-1.6,2.4-2,2.1s-.9-6.4-.9-13.6v-13.1l6.4-12.6c12.8-25.2,20.1-45.1,25.2-68.5,2.4-10.5,4.29-22.87,4.3-30.6,.01-8.44-2.4-26.1-7.1-33s-12.1-9.4-18.5-6.6Zm9,9.7c5,3.8,7.8,20.8,6.3,37.2l-.8,7.7h-22.9l.6-5.8c2.1-19.4,4.3-30,7.6-36.3,1.6-3.2,2.8-4.2,6-4.8,1.2,.5,2.3,1.1,3.2,2Zm-68.8,38.2c.6,1.9,1.1,3.9,1.5,5.9,0,.4-2.9,.8-6.5,.8s-6.5-.4-6.5-1c0-3.8,6.3-12.2,8.6-11.3,.8,.3,2.1,2.8,2.9,5.6Zm493.1-1.7c.8,1.9,1.3,3.9,1.4,5.9,0,2.4-.2,2.5-6,2.5-5,0-6-.3-6-1.8,0-2,3.6-8.2,5.7-9.9s3.2-.8,4.9,3.3h0Zm-491.6,23.4c0,8.4-2.7,25.5-6,38.5-3.1,11.9-9.4,30.3-10.9,31.8-3.9,3.9-3.4-57.9,.6-74.1,.5-2,1.1-2.2,8.4-2.2h7.9v6Zm40.2-4.2c-.1,.7-.5,19.8-.8,42.5l-.6,41.2-4.6,8.8c-2.9,5.4-6.3,10.5-10,15.3-9.5,11.6-17.2,13.1-25.8,5.2-4.7-4.3-12.4-18.2-12.4-22.3,0-1.2,1.8-5.8,3.9-10.1,9.9-19.9,17.3-48.4,19.7-75.7l.6-6.8,15.1,.3c11.7,.2,15.1,.6,14.9,1.6h0Zm30.8-.1c0,3-4.7,21.4-8,31.1-4.9,14.6-13.1,33.3-14.2,32.6s-.2-62.9,.9-64.7c.2-.4,5.1-.7,10.9-.7,9.2,0,10.4,.2,10.4,1.7h0Zm423,3c-.1,15.6-6.4,44.3-14.2,64.7-4.4,11.3-5.1,8.9-5.6-17.4-.4-20.1,1.3-44.9,3.4-50.3,.5-1.4,2-1.7,8.5-1.7h7.9v4.7Zm-138.3,191.2c-.9,36.3-4.2,53.3-11.8,61.3-3.2,3.4-4.2,3.9-7.5,3.6-2.3,0-4.5-1.2-5.8-3.1-1.9-2.5-2.1-4.2-2-14.5,.1-12.6,1.6-20.2,7.5-36.9,5.3-14.9,17.2-36.9,19.3-35.6,.5,.4,.7,10.6,.3,25.2Z"/><path class="b" d="M227.96,156.7c-6.4,0-11.5,5.1-11.5,11.5s5.1,11.5,11.5,11.5,11.5-5.1,11.5-11.5-5.1-11.5-11.5-11.5h0Zm0,17.4c-3.3,0-5.9-2.6-5.9-5.9s2.6-5.9,5.9-5.9,5.9,2.6,5.9,5.9c0,3.2-2.6,5.9-5.9,5.9Z"/></svg>
