<?xml version="1.0" encoding="UTF-8"?><svg id="a" xmlns="http://www.w3.org/2000/svg" viewBox="0 0 512 512"><defs><style>.c{fill:#e5f0ef;}.d{fill:#8fbcbb;}</style></defs><path id="b" class="c" d="M451.03,512H60.97c-33.67,0-60.97-27.3-60.97-60.97V60.97C0,27.3,27.3,0,60.97,0H451.03c33.67,0,60.97,27.3,60.97,60.97V451.03c0,33.67-27.3,60.97-60.97,60.97Z"/><path class="d" d="M416.09,404.82c-8.52,1.53-12.79-.17-16.37-6.47-2.39-4.6-2.9-10.22-2.9-36.11s-.51-31.51-2.9-36.11c-4.26-7.67-9.55-10.73-18.41-10.73-11.42,0-20.97,6.81-32.56,23.17-9.04,12.61-27.79,43.78-32.39,54-1.02,2.38-2.73,4.09-3.41,3.58-.68-.51-1.53-10.9-1.53-23.17v-22.32l10.91-21.46c21.82-42.93,34.27-76.82,42.96-116.69,4.09-17.89,6.43-41.93,6.4-55.12-.03-14.27-3.16-41.46-11.17-53.22-8.01-11.75-20.63-16.01-31.54-11.24-7.16,3.24-15,15.5-19.26,30.15-3.07,9.88-6.31,28.96-9.38,54.68l-1.02,8.18h-54.04l-1.19-8.52c-2.56-18.74-13.47-30.49-26.08-28.11-8.87,1.7-19.44,13.12-24.38,26.23l-3.75,10.39h-43.99c-37.68,0-44.33,.34-46.54,2.73-3.41,3.41-3.41,6.47,.17,9.37,2.05,1.87,12.27,2.56,44.67,2.9l42.11,.51-2.22,13.97c-3.41,22.14-4.77,82.62-2.22,105.27,5.29,48.89,22.33,85.17,45.18,96.07,10.57,4.94,24.04,5.45,33.59,.85,7.33-3.41,23.02-18.23,31.54-29.81l3.75-5.11v13.29c.17,15.33,3.07,22.66,9.89,24.36,10.57,2.73,15.17-2.21,32.9-35.43,18.58-34.75,33.59-54.17,41.77-54.17,2.05,0,3.92,.68,5.46,2.04,.68,1.19,1.36,16.35,1.36,33.73,0,30.49,.17,31.85,4.26,39.18,5.97,10.56,13.64,15.33,24.72,15.33,12.84,0,12.96-17.57,5.63-16.18Zm-106.21-228.77c3.58-33.05,7.33-51.1,12.96-61.83,2.73-5.45,4.77-7.15,10.23-8.18,2.05,.85,3.92,1.87,5.46,3.41,8.52,6.47,13.3,35.43,10.74,63.37l-1.36,13.12h-39.04l1.02-9.88Zm-1.36,26.4c.34-.68,8.69-1.19,18.58-1.19,15.68,0,17.73,.34,17.73,2.9,0,5.11-8.01,36.45-13.64,52.98-8.35,24.87-22.33,56.72-24.21,55.53-1.88-1.19-.34-107.15,1.53-110.21Zm-92.23-37.48c1.36,.51,3.58,4.77,4.94,9.54,1.02,3.24,1.88,6.64,2.56,10.05,0,.68-4.94,1.36-11.08,1.36s-11.08-.68-11.08-1.7c0-6.47,10.74-20.78,14.66-19.25Zm-20.29,40.03c.85-3.41,1.88-3.75,14.32-3.75h13.47v10.22c0,14.31-4.6,43.44-10.23,65.58-5.29,20.27-16.03,51.61-18.58,54.17-6.65,6.64-5.8-98.63,1.02-126.22Zm94.96,71.71l-1.02,70.18-7.84,14.99c-4.94,9.2-10.74,17.89-17.05,26.06-16.2,19.76-29.32,22.32-43.99,8.86-8.01-7.32-21.14-31-21.14-37.99,0-2.04,3.07-9.88,6.65-17.2,16.88-33.9,29.49-82.45,33.59-128.95l1.02-11.58,25.74,.51c19.95,.34,25.74,1.02,25.4,2.73-.17,1.19-.85,33.73-1.36,72.4Z"/></svg>