<?xml version="1.0" encoding="utf-8"?>
<!-- Generator: Adobe Illustrator 26.0.2, SVG Export Plug-In . SVG Version: 6.00 Build 0)  -->
<svg version="1.1" id="Capa_1" xmlns="http://www.w3.org/2000/svg" xmlns:xlink="http://www.w3.org/1999/xlink" x="0px" y="0px"
	 viewBox="0 0 512 512" style="enable-background:new 0 0 512 512;" xml:space="preserve">
<style type="text/css">
	.st0{fill:#EBCB8B;}
	.st1{fill:#2E3440;}
</style>
<g>
	<g>
		<path class="st0" d="M74,243c0,0,131.5-39,151-140c0,0,44,138.7,165,138c0,0-156,24-165,182C225,423,233,261,74,243z"/>
		<path class="st0" d="M15,88.9c0,0,46.6-13.8,53.5-49.6c0,0,15.6,49.2,58.5,48.9c0,0-55.3,8.5-58.5,64.5
			C68.5,152.7,71.4,95.3,15,88.9z"/>
		<path class="st0" d="M335,391.6c0,0,65.3-19.4,75-69.6c0,0,21.9,68.9,82,68.6c0,0-77.5,11.9-82,90.4C410,481,414,400.5,335,391.6z
			"/>
	</g>
	<g>
		<g>
			<path class="st1" d="M322,401c44.1,0,80,35.9,80,80c0,5.5,4.5,10,10,10s10-4.5,10-10c0-44.1,35.9-80,80-80c5.5,0,10-4.5,10-10
				s-4.5-10-10-10c-44.1,0-80-35.9-80-80c0-5.5-4.5-10-10-10s-10,4.5-10,10c0,44.1-35.9,80-80,80c-5.5,0-10,4.5-10,10
				S316.5,401,322,401z M412,344.6c9.8,20.2,26.2,36.6,46.4,46.4c-20.2,9.8-36.6,26.2-46.4,46.4c-9.8-20.2-26.2-36.6-46.4-46.4
				C385.8,381.2,402.2,364.8,412,344.6z"/>
			<path class="st1" d="M10,101c27.6,0,50,22.4,50,50c0,5.5,4.5,10,10,10s10-4.5,10-10c0-27.6,22.4-50,50-50c5.5,0,10-4.5,10-10
				s-4.5-10-10-10c-27.6,0-50-22.4-50-50c0-5.5-4.5-10-10-10s-10,4.5-10,10c0,27.6-22.4,50-50,50C4.5,81,0,85.5,0,91S4.5,101,10,101
				z M70,67c5.9,9.8,14.2,18.1,24,24c-9.8,5.9-18.1,14.2-24,24c-5.9-9.8-14.2-18.1-24-24C55.8,85.1,64.1,76.8,70,67z"/>
			<circle class="st1" cx="279" cy="294" r="10"/>
			<path class="st1" d="M305.7,271.2c2.8,4.7,9,6.3,13.7,3.5c26.1-15.5,56.1-23.7,86.6-23.7c5.5,0,10-4.5,10-10s-4.5-10-10-10
				c-93.7,0-170-76.3-170-170c0-5.5-4.5-10-10-10s-10,4.5-10,10c0,93.7-76.3,170-170,170c-5.5,0-10,4.5-10,10s4.5,10,10,10
				c93.7,0,170,76.3,170,170c0,5.5,4.5,10,10,10s10-4.5,10-10c0-30.5,8.2-60.5,23.7-86.6c2.8-4.8,1.3-10.9-3.5-13.7
				c-4.8-2.8-10.9-1.3-13.7,3.5c-6.8,11.4-12.3,23.4-16.5,35.9c-19-55.9-63.2-100.2-119.1-119.1C162.8,222,207.1,177.8,226,121.9
				C244.9,177.8,289.2,222,345.1,241c-12.5,4.2-24.5,9.7-35.9,16.5C304.4,260.3,302.9,266.4,305.7,271.2L305.7,271.2z"/>
		</g>
	</g>
</g>
</svg>
