<?xml version="1.0" encoding="utf-8"?>
<!-- Generator: Adobe Illustrator 26.0.2, SVG Export Plug-In . SVG Version: 6.00 Build 0)  -->
<svg version="1.1" id="Isolation_Mode" xmlns="http://www.w3.org/2000/svg" xmlns:xlink="http://www.w3.org/1999/xlink" x="0px"
	 y="0px" viewBox="0 0 652.8 420.4" style="enable-background:new 0 0 652.8 420.4;" xml:space="preserve">
<style type="text/css">
	.st0{fill:#8FBCBB;}
	.st1{fill:#5E81AC;}
	.st2{font-family:'Rubik-Regular';}
	.st3{font-size:36px;}
	.st4{letter-spacing:-1;}
</style>
<path class="st0" d="M136.2,1.1c-4.2,1.9-8.8,9.1-11.3,17.7c-1.8,5.8-3.7,17-5.5,32.1l-0.6,4.8H87.1l-0.7-5
	c-1.5-11-7.9-17.9-15.3-16.5c-5.2,1-11.4,7.7-14.3,15.4l-2.2,6.1H28.8c-22.1,0-26,0.2-27.3,1.6c-2,2-2,3.8,0.1,5.5
	c1.2,1.1,7.2,1.5,26.2,1.7l24.7,0.3L51.2,73c-2,13-2.8,48.5-1.3,61.8c3.1,28.7,13.1,50,26.5,56.4c6.2,2.9,14.1,3.2,19.7,0.5
	c4.3-2,13.5-10.7,18.5-17.5l2.2-3v7.8c0.1,9,1.8,13.3,5.8,14.3c6.2,1.6,8.9-1.3,19.3-20.8c10.9-20.4,19.7-31.8,24.5-31.8
	c1.2,0,2.3,0.4,3.2,1.2c0.4,0.7,0.8,9.6,0.8,19.8c0,17.9,0.1,18.7,2.5,23c3.5,6.2,8,9,14.5,9c9.2,0,17.2-4.8,25.7-15.6l5.2-6.6
	l1.6,6.1c3.3,12,10.1,18.3,20.6,18.9c8.2,0.5,13.6-2,21.9-10.3c7.8-7.8,15-18.8,22.6-34.5c5.7-11.6,9.1-17,11-17s1.9,10.2,0.1,29.9
	c-2.1,22.4-1.9,26.1,1.8,28.1c3.4,1.8,7.6,1.1,10.3-1.6c1.4-1.4,5-7.2,7.8-12.7c14.1-27.5,26.7-42.5,30.6-36.5
	c0.4,0.7,0.8,9.6,0.8,19.8c0,17.9,0.1,18.7,2.5,23c3.6,6.4,8,9,15,9c7.9,0,14.5-3.5,22-11.7c3.3-3.7,6.2-6.4,6.3-6.2
	c0.1,0.2,1.6,3,3.1,6.2c3.6,7.4,8.9,10.8,16.9,10.8c6.1,0,13.1-2.8,16.7-6.7c1.3-1.3,2.7-2.4,3.2-2.4s0.8,7.6,0.8,16.8v16.9
	l-4.6,5.9c-7.2,9.2-11.2,15.9-17.5,28.9c-10.3,21.4-15,39-15.2,56.6c-0.1,10,0,11,2.8,16.4c3.6,7,7.6,9.5,15.3,9.5
	c10.4,0,17-6.5,22.3-21.9c4.1-11.9,5.1-22.1,5.6-57.5l0.5-33.9l9.6-12.6c14.1-18.5,24.4-34.6,32.3-50.5c3.9-7.7,7.2-14.3,7.5-14.5
	c0.7-0.8,10.2,20,10.9,23.8c0.5,2.9,0.1,5.2-1.3,8.5c-3.4,7.6-10.3,9.5-17.2,4.6c-3.4-2.4-7.3-2.6-9.1-0.4s1.1,7.4,5.8,11
	c6.1,4.7,13.7,6.6,24.4,6.2c8.8-0.3,10.3-0.7,17.4-4.2c8.6-4.2,16.8-11.8,23-21.2l3.8-5.6l3.4,6.5c7,13.2,14.7,19.5,25.3,20.4
	c7.9,0.8,14.8-2.5,22.2-10.6c5.5-6,13.4-18.4,16.3-25.9c1.7-4.1,1.7-4.4,0-6.2c-0.9-1.1-2.1-1.8-3.5-2c-1.8,0-5,3-5,4.7
	c0,2.3-10.5,18.2-15.3,23.1c-8.8,9-13.2,10.2-20.8,5.3c-5.2-3.3-10.2-10.5-13.5-19.6l-2.3-6.4l3.9-7.4c8.7-16,18.4-52.1,19.8-73.2
	l0.7-10l34.5-0.5c19-0.3,35.1-0.9,35.8-1.3c1.5-1,1.6-4.9,0-6.5c-0.9-0.9-10.2-1.2-35.9-1.2h-34.7l-0.6-2.3
	c-0.3-1.4-0.5-2.8-0.6-4.2c0-1.1-1.1-4.4-2.5-7.3c-1.9-4.1-3.2-5.6-6.1-6.8C566.4,33,562,34,557.9,38c-3.1,3-9,13.8-9,16.4
	c0,1-5.9,1.3-26.3,1.3c-27.1,0-28.7,0.2-28.7,4.1s2.3,4.4,27.8,4.7l24.4,0.3l-0.7,4.5c-3.7,25-3.2,70.2,1,83.4
	c0.8,2.6-8.7,18-15.1,24.5c-6.9,7-14.6,11.3-22.2,12.2c-5.5,0.6-7-0.7-3.1-2.7c3-1.7,6.9-10.7,6.9-16.1c0-5.9-1.5-10-9.6-26.7
	c-5.6-11.2-6.7-14.2-6.4-17.6c0.9-11.5-0.7-15.6-6.1-15.6c-4.8,0-6.3,3.6-5.5,13c0.8,10-1.4,17.3-10.4,34
	c-8.7,16.2-27.5,44.4-31.1,46.6c-0.8,0.5-0.9-5.9-0.4-23.8c0.7-22.2,0.6-24.6-0.9-26.1c-3.8-3.8-6.3-1.7-8.8,7.4
	c-3.5,13.1-9.9,20.7-18.4,21.7c-8.8,1-12.9-4.7-12.2-16.8c0.5-9,3.3-15.5,8.9-21.1c5.3-5.3,9.4-7.1,16.9-7.7
	c5.8-0.3,6.9-0.1,10.3,2.2c4.1,2.8,7.6,3.3,9.5,1.4c2.1-2.1,1.3-4.6-2.4-7.6c-9.4-7.8-26.1-6.8-37.6,2.3c-5,4-11.4,12.4-15.9,21
	c-12.5,23.7-28.5,34.4-34.6,23.2c-1.6-2.8-1.8-5.5-1.5-20.4c0.3-18.5-0.3-21.9-4.9-26.2c-1.7-1.6-3.5-2.1-7.4-2.1
	c-5.4,0-10.1,2.5-15.2,8.1c-3.7,4.1-14.6,21.2-19.3,30.2s-6.6,10.9-5.7,5.4c0.3-1.7,1.1-10.9,1.8-20.2c0.9-13.3,0.9-18,0-21.4
	c-3-10.8-11.7-12.2-19.8-3.1c-1.3,1.4-5.4,8.8-9.3,16.6c-3.9,7.8-8.8,16.8-10.9,20.1c-13.5,21-27.7,26.2-35.1,13
	c-3-5.3-3.6-16.5-2-37.3c1.3-17.3,1-19.4-2.9-19.4c-4.2,0-5.1,2.1-6.3,14.5c-1,11.3-1.3,12.5-5.7,21c-5.8,11.4-17.5,23.9-23.3,25
	c-5,0.9-7.5-0.1-9.6-3.8c-1.4-2.7-1.7-6-1.7-21.2c0-15.2-0.3-18.5-1.7-21.2c-2.5-4.5-5.6-6.3-10.8-6.3c-6.7,0-12.3,4-19.1,13.6
	c-5.3,7.4-16.3,25.7-19,31.7c-0.6,1.4-1.6,2.4-2,2.1s-0.9-6.4-0.9-13.6v-13.1l6.4-12.6c12.8-25.2,20.1-45.1,25.2-68.5
	c2.4-10.5,2.7-14.5,2.8-30.6c0.1-20-0.9-26.1-5.6-33S142.6-1.7,136.2,1.1z M145.2,10.8c5,3.8,7.8,20.8,6.3,37.2l-0.8,7.7h-22.9
	l0.6-5.8c2.1-19.4,4.3-30,7.6-36.3c1.6-3.2,2.8-4.2,6-4.8C143.2,9.3,144.3,9.9,145.2,10.8z M76.4,49c0.6,1.9,1.1,3.9,1.5,5.9
	c0,0.4-2.9,0.8-6.5,0.8s-6.5-0.4-6.5-1c0-3.8,6.3-12.2,8.6-11.3C74.3,43.7,75.6,46.2,76.4,49z M569.5,47.3c0.8,1.9,1.3,3.9,1.4,5.9
	c0,2.4-0.2,2.5-6,2.5c-5,0-6-0.3-6-1.8c0-2,3.6-8.2,5.7-9.9S567.8,43.2,569.5,47.3L569.5,47.3z M77.9,70.7c0,8.4-2.7,25.5-6,38.5
	c-3.1,11.9-9.4,30.3-10.9,31.8c-3.9,3.9-3.4-57.9,0.6-74.1c0.5-2,1.1-2.2,8.4-2.2h7.9L77.9,70.7z M118.1,66.5
	c-0.1,0.7-0.5,19.8-0.8,42.5l-0.6,41.2l-4.6,8.8c-2.9,5.4-6.3,10.5-10,15.3c-9.5,11.6-17.2,13.1-25.8,5.2
	c-4.7-4.3-12.4-18.2-12.4-22.3c0-1.2,1.8-5.8,3.9-10.1c9.9-19.9,17.3-48.4,19.7-75.7l0.6-6.8l15.1,0.3
	C114.9,65.1,118.3,65.5,118.1,66.5L118.1,66.5z M148.9,66.4c0,3-4.7,21.4-8,31.1c-4.9,14.6-13.1,33.3-14.2,32.6
	c-1.1-0.7-0.2-62.9,0.9-64.7c0.2-0.4,5.1-0.7,10.9-0.7C147.7,64.7,148.9,64.9,148.9,66.4L148.9,66.4z M571.9,69.4
	c-0.1,15.6-6.4,44.3-14.2,64.7c-4.4,11.3-5.1,8.9-5.6-17.4c-0.4-20.1,1.3-44.9,3.4-50.3c0.5-1.4,2-1.7,8.5-1.7h7.9L571.9,69.4z
	 M433.6,260.6c-0.9,36.3-4.2,53.3-11.8,61.3c-3.2,3.4-4.2,3.9-7.5,3.6c-2.3,0-4.5-1.2-5.8-3.1c-1.9-2.5-2.1-4.2-2-14.5
	c0.1-12.6,1.6-20.2,7.5-36.9c5.3-14.9,17.2-36.9,19.3-35.6C433.8,235.8,434,246,433.6,260.6z"/>
<g>
	<text transform="matrix(1 0 0 1 148.89 410.88)" class="st1 st2 st3 st4">A</text>
	<text transform="matrix(1 0 0 1 180.89 410.88)" class="st1 st2 st3">l</text>
	<text transform="matrix(1 0 0 1 190 410.88)" class="st1 st2 st3">ittle</text>
	<text transform="matrix(1 0 0 1 264.59 410.88)" class="st1 st2 st3">s</text>
	<text transform="matrix(1 0 0 1 282.92 410.88)" class="st1 st2 st3">to</text>
	<text transform="matrix(1 0 0 1 317.66 410.88)" class="st1 st2 st3 st4">r</text>
	<text transform="matrix(1 0 0 1 330.98 410.88)" class="st1 st2 st3">e</text>
	<text transform="matrix(1 0 0 1 359.96 410.88)" class="st1 st2 st3">o</text>
	<text transform="matrix(1 0 0 1 380.4 410.88)" class="st1 st2 st3 st4">f</text>
	<text transform="matrix(1 0 0 1 401.54 410.88)" class="st1 st2 st3">th</text>
	<text transform="matrix(1 0 0 1 437.53 410.88)" class="st1 st2 st3">i</text>
	<text transform="matrix(1 0 0 1 446.57 410.88)" class="st1 st2 st3">ngs</text>
</g>
<path class="st0" d="M228.4,87.8c-6.4,0-11.5,5.1-11.5,11.5s5.1,11.5,11.5,11.5s11.5-5.1,11.5-11.5S234.8,87.8,228.4,87.8
	L228.4,87.8z M228.4,105.2c-3.3,0-5.9-2.6-5.9-5.9s2.6-5.9,5.9-5.9c3.3,0,5.9,2.6,5.9,5.9C234.3,102.5,231.7,105.2,228.4,105.2z"/>
</svg>
